<svg xmlns="http://www.w3.org/2000/svg">
  <symbol id="icon-leaf" viewBox="0 0 31 32">
    <g clip-path="url(#clip0_130_911)">
      <path
        d="M28.3438 2.767C28.2434 2.317 27.8647 2 27.4325 2C27.4306 2 27.4288 2 27.4269 2C22.4891 2.033 10.4816 2.916 5.63375 10.38C3.11562 14.258 2.89906 19.293 4.98969 25.345C5.00562 25.392 5.03844 25.424 5.06 25.467C4.31281 27.44 4.02312 28.753 4.01562 28.79C3.90687 29.33 4.23031 29.862 4.73656 29.978C4.80219 29.993 4.86781 30 4.93344 30C5.36562 30 5.75469 29.679 5.84937 29.21C5.86906 29.108 8.25781 18.837 16.7028 12.832C17.1341 12.526 17.2503 11.905 16.9625 11.445C16.6747 10.985 16.0934 10.86 15.6622 11.168C10.8734 14.573 7.92406 19.176 6.18969 22.824C4.94844 18.246 5.27375 14.447 7.17594 11.519C10.9194 5.755 19.7984 4.365 25.1581 4.071C24.005 5.872 22.745 9.174 22.745 15C22.745 18.12 21.9153 20.522 20.2803 22.14C17.6591 24.731 13.4009 24.974 10.2866 24.724C9.76906 24.679 9.32 25.095 9.28062 25.646C9.24125 26.196 9.62844 26.676 10.1441 26.718C10.7675 26.769 11.4331 26.8 12.125 26.8C15.2956 26.8 18.9941 26.137 21.5544 23.606C23.5888 21.595 24.62 18.7 24.62 15.001C24.62 5.902 27.8356 3.905 27.8516 3.896C28.2416 3.687 28.4459 3.219 28.3438 2.767Z"
        fill="white" />
    </g>
    <defs>
      <clipPath id="clip0_130_911">
        <rect width="30" height="32" fill="white" transform="translate(0.5)" />
      </clipPath>
    </defs>
  </symbol>
  <symbol id="icon-tub" viewBox="0 0 30 31" fill="none">
      <g clip-path="url(#a)">
        <path fill="#fff" d="M21.276 18.473c-1.706 0-3.088 1.479-3.088 3.301 0 1.824 1.383 3.302 3.088 3.302 1.706 0 3.088-1.478 3.088-3.302 0-1.823-1.383-3.3-3.088-3.3Zm0 5.013c-.884 0-1.6-.766-1.6-1.71 0-.947.716-1.713 1.6-1.713.884 0 1.602.766 1.602 1.712 0 .945-.718 1.711-1.602 1.711ZM12.107-.01c-1.76 0-3.187 1.525-3.187 3.407 0 1.882 1.426 3.407 3.187 3.407 1.76 0 3.187-1.524 3.187-3.407S13.867-.01 12.107-.01Zm0 5.476c-1.07 0-1.936-.926-1.936-2.07 0-1.142.866-2.069 1.935-2.069 1.07 0 1.936.927 1.936 2.07 0 1.143-.866 2.069-1.936 2.069ZM8.727 17.61c-1.294 0-2.341 1.12-2.341 2.503s1.047 2.503 2.34 2.503c1.295 0 2.342-1.12 2.342-2.503 0-1.382-1.047-2.503-2.341-2.503ZM8.5 19.5c-.459 0 1.158 1.104 1.158.613 0-.49-1.617.387-1.158.387.459 0 1.057-.877 1.057-.388 0 .49-.598-.612-1.057-.612ZM19 9.763s3.04-.839 6.178 1.494c.907.76 1.765 1.336 1.152 2.122-.343.34-.637.657-1.716-.524-1.054-.76-2.72-1.898-5.614-1.442-1.128.237-1.961.551-3.556 2.15-1.593 1.598-3.972 2.725-6.497 2.489-2.525-.236-3.849-1.258-5.246-2.542-.294-.42-.294-.865-.123-1.127.171-.262.833-.524 1.201-.132.368.394 2.109 1.966 3.825 2.07 1.716.105 3.433.21 5.737-1.965 2.306-2.174 3.458-2.331 4.66-2.593Z"/>
        <mask id="b">
          <path fill="#fff" d="M29.146 26.816V8.157c0-.578-.374-.65-.524-.655h-.506c-.493 0-.536.557-.538.739V8.3c.002 3.609.01 18.254-.002 18.54a2.681 2.681 0 0 1-.82 1.887c-.809.695-1.618.603-1.618.603s-20.177 0-20.655-.026c-.38-.066-1.042-.21-1.606-1.01-.564-.798-.453-1.847-.453-1.847V8.315c0-.839-.675-.812-.675-.812h-.307c-.536 0-.585.588-.588.776v18.537c0 1.337.453 2.398 1.548 3.337 1.094.939 2.375.856 2.375.856s19.723 0 20.581-.002c.859-.003 1.986-.417 2.916-1.556.93-1.138.872-2.635.872-2.635Z"/>
        </mask>
        <path fill="#fff" d="M29.146 26.816V8.157c0-.578-.374-.65-.524-.655h-.506c-.493 0-.536.557-.538.739V8.3c.002 3.609.01 18.254-.002 18.54a2.681 2.681 0 0 1-.82 1.887c-.809.695-1.618.603-1.618.603s-20.177 0-20.655-.026c-.38-.066-1.042-.21-1.606-1.01-.564-.798-.453-1.847-.453-1.847V8.315c0-.839-.675-.812-.675-.812h-.307c-.536 0-.585.588-.588.776v18.537c0 1.337.453 2.398 1.548 3.337 1.094.939 2.375.856 2.375.856s19.723 0 20.581-.002c.859-.003 1.986-.417 2.916-1.556.93-1.138.872-2.635.872-2.635Z"/>
        <path d="M29.146 26.816h-20v.387l.015.387 19.985-.774Zm-.524-19.314.71-19.987-.355-.013h-.355v20Zm-1.044.739-20-.15v.15h20Zm0 .06h-20v.008l20-.008Zm-.002 18.54-19.985-.758v.013l19.986.745Zm-.82 1.887 13.039 15.165.431-.37.41-.396-13.88-14.399Zm-1.618.603 2.26-19.872-1.127-.128h-1.133v20Zm-20.655-.026-3.395 19.71 1.134.195 1.148.064 1.113-19.97Zm-1.606-1.01-16.344 11.528.004.006 16.34-11.533Zm-.453-1.847 19.89 2.098.11-1.046v-1.052h-20ZM1.749 7.503v20h.388l.388-.015-.776-19.985Zm-.895.776-19.998-.289-.002.145v.144h20Zm1.548 21.874L-10.624 45.33 2.403 30.153Zm2.375.856v-20h-.643l-.64.041 1.283 19.96Zm23.497-1.558 15.49 12.654.005-.008-15.495-12.646Zm20.872-2.635V8.157h-40v18.659h40Zm0-18.659c0-4.97-1.859-11.419-7.618-16.084-4.89-3.96-10.03-4.481-12.196-4.558l-1.42 39.974a19.462 19.462 0 0 1-11.56-4.332c-5.535-4.483-7.206-10.608-7.206-15h40ZM28.622-12.498h-.506v40h.506v-40Zm-.506 0a20.47 20.47 0 0 0-12.283 4.083A20.526 20.526 0 0 0 9.414-.38 21.134 21.134 0 0 0 7.579 8.09l39.999.299c-.006.733-.014 3.914-1.667 7.598a19.474 19.474 0 0 1-6.096 7.61 19.53 19.53 0 0 1-11.699 3.904v-40ZM7.578 8.241V8.292h40V8.24h-40Zm0 .05V8.302h40V8.291h-40Zm0 .018.004 10.511a8367.03 8367.03 0 0 1-.002 7.252c-.002.788-.006.45.01.011L47.563 27.6c.02-.51.018-1.37.018-1.45l.002-1.808v-5.528c0-4.15-.003-8.719-.004-10.52l-40 .016Zm.012 17.787c.05-1.35.384-7.042 5.285-11.767l27.761 28.798c6.396-6.166 6.852-13.536 6.927-15.54L7.59 26.096Zm6.126-12.533a17.513 17.513 0 0 1 7.807-3.843 17.962 17.962 0 0 1 4.628-.362 19.227 19.227 0 0 1 1.172.093l.037.004.019.002c.01.001.019.002-2.241 19.874-2.26 19.872-2.25 19.873-2.241 19.874l.018.003c.013 0 .025.002.038.004a14.8 14.8 0 0 0 .553.053 20.798 20.798 0 0 0 2.275.064 22.044 22.044 0 0 0 3.983-.468 22.487 22.487 0 0 0 10.03-4.968l-26.078-30.33Zm11.422 15.768v-20h-.866a17598.02 17598.02 0 0 1-16.322-.01l-2.357-.007c-1.071-.005-.613-.013.002.022L3.37 49.274c.97.054 7.17.051 11.606.054l6.997.003h3.164v-20ZM7.877 9.595c.432.074 2.526.427 4.938 1.653a17.618 17.618 0 0 1 6.401 5.514L-13.463 39.83c4.995 7.076 11.877 8.725 14.551 9.186l6.789-39.42Zm11.344 7.173c2.348 3.33 2.908 6.51 3.08 7.955a16.586 16.586 0 0 1 .049 3.439 18.522 18.522 0 0 1-.027.29l-.005.047-.002.024-.002.012c0 .005 0 .011-19.89-2.087-19.89-2.098-19.89-2.092-19.891-2.086l-.002.012a19.73 19.73 0 0 0-.036.385 21.677 21.677 0 0 0-.078 1.584c-.011.81.016 1.863.16 3.08.257 2.169 1.043 6.27 3.956 10.4L19.22 16.768Zm3.203 9.68V8.315h-40v18.133h40Zm0-18.133c0-6.89-3.412-14.004-10.265-17.999a20.69 20.69 0 0 0-11.136-2.8H.998c-.012.001-.024.002.751 19.987.776 19.985.763 19.985.751 19.985l-.024.001-.05.002a28.574 28.574 0 0 1-.3.008 19.374 19.374 0 0 1-10.112-2.626 19.387 19.387 0 0 1-7.239-7.434 19.028 19.028 0 0 1-2.351-9.124h40ZM1.748-12.497h-.307v40h.307v-40Zm-.307 0c-4.037 0-8.32 1.191-12.061 3.905a20.562 20.562 0 0 0-6.553 7.946 21.166 21.166 0 0 0-1.972 8.636l39.996.578c-.011.758-.045 3.996-1.784 7.718a19.438 19.438 0 0 1-6.2 7.5 19.477 19.477 0 0 1-11.426 3.717v-40ZM-19.146 8.279V26.816h40V8.279h-40Zm0 18.537c0 7.063 2.92 13.705 8.522 18.514l26.052-30.354c1.294 1.111 2.854 2.871 3.993 5.373a15.716 15.716 0 0 1 1.433 6.467h-40Zm8.523 18.514A23.586 23.586 0 0 0-.143 50.5a23.616 23.616 0 0 0 5.087.51 21.335 21.335 0 0 0 .991-.034l.063-.004.03-.002h.016c.008-.001.016-.002-1.267-19.96C3.494 11.05 3.5 11.05 3.509 11.05l.015-.002.03-.001a429.613 429.613 0 0 1 .185-.01 19.735 19.735 0 0 1 .755-.025c.342-.004.702.002 1.077.021.737.037 1.607.13 2.571.334 1.88.398 4.642 1.34 7.285 3.609l-26.05 30.354Zm15.4-14.32v20H7.872l6.875-.001c5.007 0 10.202 0 10.668-.002l-.113-40H24.22l-2.443.001-7.033.001H4.778v20Zm20.638 19.997c7.104-.02 13.8-3.336 18.348-8.902L12.786 16.799c2.687-3.29 7.129-5.777 12.516-5.792l.113 40Zm18.354-8.91c3.245-3.977 4.434-8.096 4.913-10.529a24.742 24.742 0 0 0 .464-4.58 21.801 21.801 0 0 0-.015-.934c0-.006 0-.013-19.985.762-19.985.774-19.986.767-19.986.761v-.013l-.001-.025a18.379 18.379 0 0 1 .014-1.619c.033-.576.105-1.28.262-2.075.275-1.4 1.028-4.201 3.344-7.039l30.99 25.291Z" mask="url(#b)"/>
      </g>
      <defs>
        <clipPath id="a">
          <path fill="#fff" transform="translate(.5)" d="M0 0h29v31H0z"/>
        </clipPath>
      </defs>
  </symbol>
  <symbol id="icon-eat" viewBox="0 0 26 30">
    <path fill-rule="evenodd" clip-rule="evenodd"
      d="M19.1173 0.0761497C19.491 -0.0786313 19.9211 0.00692445 20.2071 0.292922C21.1156 1.20142 22.3038 3.17065 23.2659 6.21082C24.2373 9.28039 25 13.5081 25 19C25 19.5523 24.5523 20 24 20H20.5V29C20.5 29.5523 20.0523 30 19.5 30C18.9477 30 18.5 29.5523 18.5 29V1.00003C18.5 0.595567 18.7436 0.230931 19.1173 0.0761497ZM20.5 18H22.9912C22.9053 13.1836 22.2051 9.48755 21.3591 6.81424C21.0807 5.93457 20.7885 5.1715 20.5 4.51895V18Z"
      fill="white" />
    <path fill-rule="evenodd" clip-rule="evenodd"
      d="M6.5 0C7.05228 0 7.5 0.447715 7.5 1V29C7.5 29.5523 7.05228 30 6.5 30C5.94772 30 5.5 29.5523 5.5 29V1C5.5 0.447715 5.94772 0 6.5 0Z"
      fill="white" />
    <path fill-rule="evenodd" clip-rule="evenodd"
      d="M2 0C2.55228 0 3 0.447715 3 1V6.5C3 7.05686 3.19203 7.81518 3.70088 8.41656C4.18001 8.98281 5.01446 9.5 6.49993 9.5C7.05221 9.5 7.49993 9.94771 7.49993 10.5C7.49993 11.0523 7.05221 11.5 6.49993 11.5C4.48547 11.5 3.06995 10.7672 2.1741 9.70844C1.30797 8.68482 1 7.44314 1 6.5V1C1 0.447715 1.44772 0 2 0Z"
      fill="white" />
    <path fill-rule="evenodd" clip-rule="evenodd"
      d="M11 0C10.4477 0 10 0.447715 10 1V6.5C10 7.05686 9.80797 7.81518 9.29912 8.41656C8.81999 8.98281 7.9854 9.5 6.49993 9.5C5.94765 9.5 5.50007 9.94771 5.50007 10.5C5.50007 11.0523 5.94765 11.5 6.49993 11.5C8.51439 11.5 9.93005 10.7672 10.8259 9.70844C11.692 8.68482 12 7.44314 12 6.5V1C12 0.447715 11.5523 0 11 0Z"
      fill="white" />
  </symbol>
  <symbol id="icon-alarm" viewBox="0 0 33 33">
    <ellipse cx="21.7042" cy="11.3299" rx="1.0873" ry="1.08512" fill="white" />
    <ellipse cx="10.8311" cy="11.3299" rx="1.08731" ry="1.08512" fill="white" />
    <ellipse cx="10.8311" cy="24.3512" rx="1.08731" ry="1.08512" fill="white" />
    <ellipse cx="16.2677" cy="26.5215" rx="1.0873" ry="1.08512" fill="white" />
    <ellipse cx="7.56924" cy="17.7748" rx="1.08731" ry="1.08512" fill="white" />
    <ellipse cx="24.9661" cy="17.7748" rx="1.0873" ry="1.08512" fill="white" />
    <ellipse cx="21.7042" cy="24.3512" rx="1.0873" ry="1.08512" fill="white" />
    <mask id="path-8-inside-1_130_940" fill="white">
      <path fill-rule="evenodd" clip-rule="evenodd"
        d="M21.4215 29.0581C21.8298 28.8622 22.3226 28.9298 22.6385 29.2542L24.4644 31.1292C24.7319 31.4039 25.1734 31.4039 25.441 31.1292C25.6987 30.8645 25.6987 30.4427 25.441 30.1781L24.0843 28.7849C23.6584 28.3475 23.7228 27.6356 24.182 27.2333C26.8238 24.9195 28.5 21.4688 28.5 17.6145C28.5 10.6477 23.0235 5 16.2678 5C9.51218 5 4.03564 10.6477 4.03564 17.6145C4.03564 21.4288 5.67729 24.8477 8.27166 27.1608C8.72438 27.5644 8.78489 28.2708 8.36173 28.7054L6.92757 30.1781C6.66985 30.4427 6.66984 30.8645 6.92756 31.1291C7.19513 31.4039 7.63664 31.4039 7.90421 31.1292L9.78384 29.199C10.1025 28.8718 10.6004 28.8061 11.0102 29.0076C12.603 29.7907 14.3858 30.229 16.2678 30.229C18.109 30.229 19.8553 29.8095 21.4215 29.0581ZM16.2678 28.8274C22.2728 28.8274 27.1409 23.8072 27.1409 17.6145C27.1409 11.4218 22.2728 6.40161 16.2678 6.40161C10.2628 6.40161 5.39478 11.4218 5.39478 17.6145C5.39478 23.8072 10.2628 28.8274 16.2678 28.8274ZM15.5083 17.298V13.5001V9.94092C15.5083 9.50942 15.8581 9.15963 16.2895 9.15963C16.721 9.15963 17.0708 9.50942 17.0708 9.94092V13.5001V17.298V17.8406V18.1226C17.0708 18.5661 16.7113 18.9257 16.2677 18.9257C15.8483 18.9257 15.5083 18.5857 15.5083 18.1663V17.8406V17.298Z" />
    </mask>
    <path fill-rule="evenodd" clip-rule="evenodd"
      d="M21.4215 29.0581C21.8298 28.8622 22.3226 28.9298 22.6385 29.2542L24.4644 31.1292C24.7319 31.4039 25.1734 31.4039 25.441 31.1292C25.6987 30.8645 25.6987 30.4427 25.441 30.1781L24.0843 28.7849C23.6584 28.3475 23.7228 27.6356 24.182 27.2333C26.8238 24.9195 28.5 21.4688 28.5 17.6145C28.5 10.6477 23.0235 5 16.2678 5C9.51218 5 4.03564 10.6477 4.03564 17.6145C4.03564 21.4288 5.67729 24.8477 8.27166 27.1608C8.72438 27.5644 8.78489 28.2708 8.36173 28.7054L6.92757 30.1781C6.66985 30.4427 6.66984 30.8645 6.92756 31.1291C7.19513 31.4039 7.63664 31.4039 7.90421 31.1292L9.78384 29.199C10.1025 28.8718 10.6004 28.8061 11.0102 29.0076C12.603 29.7907 14.3858 30.229 16.2678 30.229C18.109 30.229 19.8553 29.8095 21.4215 29.0581ZM16.2678 28.8274C22.2728 28.8274 27.1409 23.8072 27.1409 17.6145C27.1409 11.4218 22.2728 6.40161 16.2678 6.40161C10.2628 6.40161 5.39478 11.4218 5.39478 17.6145C5.39478 23.8072 10.2628 28.8274 16.2678 28.8274ZM15.5083 17.298V13.5001V9.94092C15.5083 9.50942 15.8581 9.15963 16.2895 9.15963C16.721 9.15963 17.0708 9.50942 17.0708 9.94092V13.5001V17.298V17.8406V18.1226C17.0708 18.5661 16.7113 18.9257 16.2677 18.9257C15.8483 18.9257 15.5083 18.5857 15.5083 18.1663V17.8406V17.298Z"
      fill="white" />
    <path
      d="M9.78384 29.199L12.6495 31.9896L9.78384 29.199ZM11.0102 29.0076L12.775 25.418L11.0102 29.0076ZM7.90421 31.1292L5.03851 28.3385L7.90421 31.1292ZM6.92757 30.1781L9.79325 32.9687L6.92757 30.1781ZM24.0843 28.7849L21.2186 31.5756L24.0843 28.7849ZM24.182 27.2333L21.5465 24.2243L24.182 27.2333ZM8.27166 27.1608L5.60971 30.1464L8.27166 27.1608ZM8.36173 28.7054L5.49605 25.9147L8.36173 28.7054ZM25.441 30.1781L28.3067 27.3874L25.441 30.1781ZM24.4644 31.1292L27.3301 28.3385L24.4644 31.1292ZM22.6385 29.2542L19.7728 32.0449L22.6385 29.2542ZM21.4215 29.0581L19.6913 25.4516L21.4215 29.0581ZM19.7728 32.0449L21.5987 33.9198L27.3301 28.3385L25.5042 26.4636L19.7728 32.0449ZM28.3067 27.3874L26.95 25.9942L21.2186 31.5756L22.5753 32.9688L28.3067 27.3874ZM26.8175 30.2423C30.3075 27.1855 32.5 22.6466 32.5 17.6145H24.5C24.5 20.2911 23.3401 22.6534 21.5465 24.2243L26.8175 30.2423ZM32.5 17.6145C32.5 8.5555 25.3478 1 16.2678 1V9C20.6992 9 24.5 12.7399 24.5 17.6145H32.5ZM16.2678 1C7.18789 1 0.0356445 8.5555 0.0356445 17.6145H8.03564C8.03564 12.7399 11.8365 9 16.2678 9V1ZM0.0356445 17.6145C0.0356445 22.5943 2.18296 27.0912 5.60971 30.1464L10.9336 24.1752C9.17162 22.6042 8.03564 20.2633 8.03564 17.6145H0.0356445ZM5.49605 25.9147L4.06188 27.3874L9.79325 32.9687L11.2274 31.496L5.49605 25.9147ZM10.7699 33.9198L12.6495 31.9896L6.91814 26.4083L5.03851 28.3385L10.7699 33.9198ZM9.24538 32.5972C11.3722 33.6429 13.7573 34.229 16.2678 34.229V26.229C15.0143 26.229 13.8337 25.9385 12.775 25.418L9.24538 32.5972ZM16.2678 34.229C18.7236 34.229 21.0598 33.6681 23.1517 32.6645L19.6913 25.4516C18.6508 25.9508 17.4944 26.229 16.2678 26.229V34.229ZM16.2678 32.8274C24.5971 32.8274 31.1409 25.8994 31.1409 17.6145H23.1409C23.1409 21.715 19.9485 24.8274 16.2678 24.8274V32.8274ZM31.1409 17.6145C31.1409 9.32959 24.5971 2.40161 16.2678 2.40161V10.4016C19.9485 10.4016 23.1409 13.514 23.1409 17.6145H31.1409ZM16.2678 2.40161C7.93851 2.40161 1.39478 9.32959 1.39478 17.6145H9.39478C9.39478 13.514 12.5871 10.4016 16.2678 10.4016V2.40161ZM1.39478 17.6145C1.39478 25.8994 7.93851 32.8274 16.2678 32.8274V24.8274C12.5871 24.8274 9.39478 21.715 9.39478 17.6145H1.39478ZM13.0708 17.298V17.8406H21.0708V17.298H13.0708ZM13.0708 17.8406V18.1226H21.0708V17.8406H13.0708ZM19.5083 18.1663V17.8406H11.5083V18.1663H19.5083ZM19.5083 17.8406V17.298H11.5083V17.8406H19.5083ZM19.5083 17.298V13.5001H11.5083V17.298H19.5083ZM19.5083 13.5001V9.94092H11.5083V13.5001H19.5083ZM13.0708 9.94092V13.5001H21.0708V9.94092H13.0708ZM13.0708 13.5001V17.298H21.0708V13.5001H13.0708ZM16.2895 5.15963C13.6489 5.15963 11.5083 7.30029 11.5083 9.94092H19.5083C19.5083 11.7186 18.0672 13.1596 16.2895 13.1596V5.15963ZM13.0708 18.1226C13.0708 16.357 14.5021 14.9257 16.2677 14.9257V22.9257C18.9204 22.9257 21.0708 20.7753 21.0708 18.1226H13.0708ZM12.6495 31.9896C11.6569 33.009 10.2521 33.0922 9.24538 32.5972L12.775 25.418C10.9487 24.52 8.54805 24.7346 6.91814 26.4083L12.6495 31.9896ZM4.06185 33.9198C5.89966 35.807 8.9321 35.807 10.7699 33.9198L5.03851 28.3385C6.34118 27.0008 8.49061 27.0008 9.79327 28.3385L4.06185 33.9198ZM4.06188 27.3874C2.29175 29.2051 2.29174 32.1021 4.06185 33.9198L9.79327 28.3385C11.048 29.6269 11.0479 31.6803 9.79325 32.9687L4.06188 27.3874ZM26.95 25.9942C28.2927 27.3731 27.894 29.2994 26.8175 30.2423L21.5465 24.2243C19.5515 25.9717 19.024 29.3219 21.2186 31.5756L26.95 25.9942ZM16.2895 13.1596C14.5119 13.1596 13.0708 11.7186 13.0708 9.94092H21.0708C21.0708 7.30028 18.9302 5.15963 16.2895 5.15963V13.1596ZM5.60971 30.1464C4.5463 29.1983 4.16263 27.2839 5.49605 25.9147L11.2274 31.496C13.4071 29.2577 12.9025 25.9306 10.9336 24.1752L5.60971 30.1464ZM28.3067 33.9198C30.0768 32.1021 30.0768 29.2051 28.3067 27.3874L22.5753 32.9688C21.3206 31.6803 21.3206 29.6269 22.5753 28.3385L28.3067 33.9198ZM21.5987 33.9198C23.4365 35.807 26.4689 35.807 28.3067 33.9198L22.5753 28.3385C23.878 27.0008 26.0274 27.0008 27.3301 28.3385L21.5987 33.9198ZM16.2677 14.9257C18.0574 14.9257 19.5083 16.3765 19.5083 18.1663H11.5083C11.5083 20.7948 13.6391 22.9257 16.2677 22.9257V14.9257ZM25.5042 26.4636C23.8881 24.804 21.5117 24.5783 19.6913 25.4516L23.1517 32.6645C22.148 33.1461 20.757 33.0555 19.7728 32.0449L25.5042 26.4636Z"
      fill="none" mask="url(#path-8-inside-1_130_940)" />
    <rect x="15.5" y="6" width="4" height="1.5" transform="rotate(-90 15.5 6)" fill="white" />
    <rect x="8.5" y="2" width="15.5" height="1.5" rx="0.75" fill="white" />
  </symbol>
  <symbol id="footer-logo" viewBox="0 0 27 34">
    <path d="M13.6426 0.0157537L13.5 0L0 1.40733V26.0129L13.5 34L27 26.0129V1.40733L13.6426 0.0157537ZM25.2344 25.0151L13.5 31.9573L1.76561 25.0151V14.9293L13.4507 21.8451L13.4701 23.0984L5.45351 18.3548L5.44295 19.5801L13.4894 24.3885L13.5088 25.675L5.46408 20.9174L5.45351 22.1427L13.5 26.9511L21.6239 22.1182V20.8929V16.909L25.2432 14.7595L25.2344 25.0151ZM25.2344 13.4519L22.0147 15.3319L20.5325 16.2071L13.4666 12.0201L13.456 13.2454L19.4957 16.818L19.4429 16.8495L19.3126 16.9247L18.4536 17.4166L13.4666 14.4689L13.456 15.6942L17.3921 18.0222L16.4591 18.6314L16.438 18.6436L13.4666 16.902L13.456 18.1273L15.4029 19.2615L13.4155 20.4483L1.7973 13.5762L13.4349 6.61831L25.2344 13.4519ZM25.2344 12.2266L13.4401 5.31075L1.76561 12.2196V2.9897L13.5 1.76442L25.2344 2.9897V12.2266Z" />
  </symbol>
  <symbol id="icon-gift" viewBox="0 0 78 80">
      <path
      d="M64.0156 34.7127H14.031C12.2766 34.7127 10.8494 33.2951 10.8494 31.5524V22.0842C10.8494 20.3415 12.2766 18.9233 14.031 18.9233H64.0149C65.7687 18.9233 67.1953 20.3415 67.1953 22.0842V31.553C67.1959 33.2951 65.7693 34.7127 64.0156 34.7127ZM14.031 21.3455C13.6276 21.3455 13.2869 21.684 13.2869 22.0842V31.553C13.2869 31.9599 13.6208 32.2912 14.031 32.2912H64.0149C64.4244 32.2912 64.7578 31.9599 64.7578 31.553V22.0842C64.7578 21.6834 64.4171 21.3455 64.0149 21.3455H14.031Z"
      fill="white" />
    <path
      d="M57.0447 67.1488H20.999C17.6218 67.1488 14.8741 64.4191 14.8741 61.0626V33.5016C14.8741 32.8331 15.4201 32.2905 16.0929 32.2905C16.7656 32.2905 17.3116 32.8331 17.3116 33.5016V61.0626C17.3116 63.0833 18.9661 64.7267 20.999 64.7267H57.0447C59.077 64.7267 60.7308 63.0833 60.7308 61.0626V33.5016C60.7308 32.8331 61.2768 32.2905 61.9496 32.2905C62.6223 32.2905 63.1683 32.8331 63.1683 33.5016V61.0626C63.1683 64.4191 60.4213 67.1488 57.0447 67.1488Z"
      fill="white" />
    <path
      d="M39.0225 67.1488C38.3498 67.1488 37.8038 66.6069 37.8038 65.9378V33.5016C37.8038 32.8331 38.3498 32.2905 39.0225 32.2905C39.6953 32.2905 40.2413 32.8331 40.2413 33.5016V65.9372C40.2413 66.6069 39.6959 67.1488 39.0225 67.1488Z"
      fill="white" />
    <path
      d="M23.8113 21.3414C19.9966 19.2874 18.5731 14.5327 20.6383 10.7415C22.7022 6.95201 27.4864 5.53687 31.303 7.58721C37.117 10.7166 40.2565 19.4472 40.3869 19.8172L38.0877 20.6208C38.0585 20.5384 35.1256 12.3994 30.1433 9.71749C27.5078 8.30175 24.2062 9.27908 22.7821 11.8944C21.3567 14.5121 22.339 17.7941 24.9734 19.2117L23.8113 21.3414Z"
      fill="white" />
    <path
      d="M54.2313 21.3413L53.071 19.2111C54.3477 18.5238 55.2782 17.3848 55.6926 16.0035C56.1063 14.6217 55.9534 13.1624 55.2617 11.895C54.5719 10.6264 53.4263 9.70233 52.0363 9.29117C50.6457 8.88001 49.1783 9.0314 47.9023 9.71747C42.9201 12.3988 39.9871 20.5378 39.9579 20.6202L37.6587 19.8166C37.7891 19.4466 40.928 10.716 46.7421 7.58719C48.5897 6.5929 50.7182 6.3737 52.7316 6.96955C54.7468 7.56479 56.4061 8.90484 57.4061 10.7414C58.4073 12.5774 58.6285 14.6913 58.0289 16.6939C57.4287 18.6958 56.0801 20.3458 54.2313 21.3413Z"
      fill="white" />
    <path
      d="M61.9496 50.9314H16.0929C15.4201 50.9314 14.8741 50.3889 14.8741 49.7204C14.8741 49.0518 15.4201 48.5093 16.0929 48.5093H61.9496C62.6223 48.5093 63.1683 49.0518 63.1683 49.7204C63.1683 50.3889 62.6229 50.9314 61.9496 50.9314Z"
      fill="white" />
  </symbol>
  <symbol id="icon-email" viewBox="0 0 20 15">
    <line x1="1.65" y1="5.84766" x2="1.65" y2="13.8477" stroke-width="1.3" />
    <line x1="18.65" y1="5.84766" x2="18.65" y2="13.8477" stroke-width="1.3" />
    <line x1="1" y1="13.1977" x2="19" y2="13.1977" stroke-width="1.3" />
    <line x1="1" y1="1.19766" x2="19" y2="1.19766" stroke-width="1.3" />
    <path d="M18.35 3.02975L10 9.5242L1.65 3.02975V1.49766H4.5L10 1.49766H15H18.35V3.02975Z"
      stroke-width="1.3" />
  </symbol>
  <symbol id="icon-phone" viewBox="0 0 20 21">
    <g clip-path="url(#clip0_153_253)">
      <path
        d="M17.9 9.75275H9.39999V10.9569H17.9L15.8 13.0641L16.7 13.9672L19.8 10.8565C19.8974 10.7263 19.95 10.5678 19.95 10.405C19.95 10.2421 19.8974 10.0837 19.8 9.95344L16.7 6.84277L15.8 7.74587L17.9 9.75275Z"
        fill="none" />
      <path
        d="M8.10001 19.7872V13.5659C8.08846 13.41 8.02154 13.2635 7.91142 13.153C7.80131 13.0425 7.65531 12.9754 7.50001 12.9638H3.10001C3.10516 13.2815 3.23325 13.5848 3.45718 13.8095C3.68112 14.0342 3.98336 14.1627 4.30001 14.1679H6.80001V19.1851H3.10001C2.86326 19.2 2.62591 19.1676 2.40176 19.0896C2.17762 19.0117 1.97115 18.8898 1.79436 18.7311C1.61757 18.5723 1.47399 18.3799 1.37196 18.165C1.26992 17.9501 1.21148 17.717 1.20001 17.4793V3.43111C1.19181 2.96681 1.36516 2.51774 1.68292 2.18013C2.00069 1.84252 2.43758 1.64322 2.90001 1.62492H6.80001V6.64212H4.40001C4.08336 6.64729 3.78112 6.77581 3.55718 7.00052C3.33325 7.22523 3.20516 7.52851 3.20001 7.84625H7.60001C7.75531 7.83466 7.90131 7.76751 8.01142 7.65701C8.12154 7.54651 8.18846 7.40002 8.20001 7.24418V0.922517C8.15232 0.76584 8.06117 0.626022 7.93721 0.519407C7.81325 0.412792 7.66161 0.343785 7.50001 0.320453H3.10001C2.70599 0.307054 2.31321 0.371716 1.94411 0.510744C1.57501 0.649771 1.23684 0.860436 0.948933 1.13069C0.661026 1.40095 0.42903 1.7255 0.266207 2.08579C0.103385 2.44608 0.01293 2.83504 1.46306e-05 3.23043V17.1782C-0.0289644 17.5773 0.0246504 17.978 0.157487 18.3552C0.290324 18.7324 0.499509 19.078 0.771886 19.3701C1.04426 19.6623 1.37394 19.8947 1.74019 20.0529C2.10643 20.211 2.50132 20.2913 2.90001 20.2889H7.50001C7.5735 20.304 7.64943 20.3022 7.72216 20.2839C7.7949 20.2655 7.86259 20.2309 7.92021 20.1828C7.97783 20.1346 8.02391 20.074 8.05504 20.0055C8.08616 19.9371 8.10153 19.8624 8.10001 19.7872Z"
        fill="none" />
    </g>
    <defs>
      <clipPath id="clip0_153_253">
        <rect width="20" height="20.0688" fill="white" transform="translate(0 0.320435)" />
      </clipPath>
    </defs>
  </symbol>
</svg>
