<svg width="33" height="33" viewBox="0 0 33 33" xmlns="http://www.w3.org/2000/svg">
<ellipse cx="21.7042" cy="11.3299" rx="1.0873" ry="1.08512" fill="white"/>
<ellipse cx="10.8311" cy="11.3299" rx="1.08731" ry="1.08512" fill="white"/>
<ellipse cx="10.8311" cy="24.3512" rx="1.08731" ry="1.08512" fill="white"/>
<ellipse cx="16.2677" cy="26.5215" rx="1.0873" ry="1.08512" fill="white"/>
<ellipse cx="7.56924" cy="17.7748" rx="1.08731" ry="1.08512" fill="white"/>
<ellipse cx="24.9661" cy="17.7748" rx="1.0873" ry="1.08512" fill="white"/>
<ellipse cx="21.7042" cy="24.3512" rx="1.0873" ry="1.08512" fill="white"/>
<mask id="path-8-inside-1_130_940" fill="white">
<path fill-rule="evenodd" clip-rule="evenodd" d="M21.4215 29.0581C21.8298 28.8622 22.3226 28.9298 22.6385 29.2542L24.4644 31.1292C24.7319 31.4039 25.1734 31.4039 25.441 31.1292C25.6987 30.8645 25.6987 30.4427 25.441 30.1781L24.0843 28.7849C23.6584 28.3475 23.7228 27.6356 24.182 27.2333C26.8238 24.9195 28.5 21.4688 28.5 17.6145C28.5 10.6477 23.0235 5 16.2678 5C9.51218 5 4.03564 10.6477 4.03564 17.6145C4.03564 21.4288 5.67729 24.8477 8.27166 27.1608C8.72438 27.5644 8.78489 28.2708 8.36173 28.7054L6.92757 30.1781C6.66985 30.4427 6.66984 30.8645 6.92756 31.1291C7.19513 31.4039 7.63664 31.4039 7.90421 31.1292L9.78384 29.199C10.1025 28.8718 10.6004 28.8061 11.0102 29.0076C12.603 29.7907 14.3858 30.229 16.2678 30.229C18.109 30.229 19.8553 29.8095 21.4215 29.0581ZM16.2678 28.8274C22.2728 28.8274 27.1409 23.8072 27.1409 17.6145C27.1409 11.4218 22.2728 6.40161 16.2678 6.40161C10.2628 6.40161 5.39478 11.4218 5.39478 17.6145C5.39478 23.8072 10.2628 28.8274 16.2678 28.8274ZM15.5083 17.298V13.5001V9.94092C15.5083 9.50942 15.8581 9.15963 16.2895 9.15963C16.721 9.15963 17.0708 9.50942 17.0708 9.94092V13.5001V17.298V17.8406V18.1226C17.0708 18.5661 16.7113 18.9257 16.2677 18.9257C15.8483 18.9257 15.5083 18.5857 15.5083 18.1663V17.8406V17.298Z"/>
</mask>
<path fill-rule="evenodd" clip-rule="evenodd" d="M21.4215 29.0581C21.8298 28.8622 22.3226 28.9298 22.6385 29.2542L24.4644 31.1292C24.7319 31.4039 25.1734 31.4039 25.441 31.1292C25.6987 30.8645 25.6987 30.4427 25.441 30.1781L24.0843 28.7849C23.6584 28.3475 23.7228 27.6356 24.182 27.2333C26.8238 24.9195 28.5 21.4688 28.5 17.6145C28.5 10.6477 23.0235 5 16.2678 5C9.51218 5 4.03564 10.6477 4.03564 17.6145C4.03564 21.4288 5.67729 24.8477 8.27166 27.1608C8.72438 27.5644 8.78489 28.2708 8.36173 28.7054L6.92757 30.1781C6.66985 30.4427 6.66984 30.8645 6.92756 31.1291C7.19513 31.4039 7.63664 31.4039 7.90421 31.1292L9.78384 29.199C10.1025 28.8718 10.6004 28.8061 11.0102 29.0076C12.603 29.7907 14.3858 30.229 16.2678 30.229C18.109 30.229 19.8553 29.8095 21.4215 29.0581ZM16.2678 28.8274C22.2728 28.8274 27.1409 23.8072 27.1409 17.6145C27.1409 11.4218 22.2728 6.40161 16.2678 6.40161C10.2628 6.40161 5.39478 11.4218 5.39478 17.6145C5.39478 23.8072 10.2628 28.8274 16.2678 28.8274ZM15.5083 17.298V13.5001V9.94092C15.5083 9.50942 15.8581 9.15963 16.2895 9.15963C16.721 9.15963 17.0708 9.50942 17.0708 9.94092V13.5001V17.298V17.8406V18.1226C17.0708 18.5661 16.7113 18.9257 16.2677 18.9257C15.8483 18.9257 15.5083 18.5857 15.5083 18.1663V17.8406V17.298Z" fill="white"/>
<rect x="15.5" y="6" width="4" height="1.5" transform="rotate(-90 15.5 6)" fill="white"/>
<rect x="8.5" y="2" width="15.5" height="1.5" rx="0.75" fill="white"/>
</svg>
